HIERARCHY
ROOT SimulationBone
{
	OFFSET 0.000000 0.000000 0.000000
	CHANNELS 6 Xposition Yposition Zposition Zrotation Yrotation Xrotation 
	JOINT Hips
	{
		OFFSET 0.000000 0.000000 0.000000
		CHANNELS 6 Xposition Yposition Zposition Zrotation Yrotation Xrotation 
		JOINT LeftUpLeg
		{
			OFFSET 0.103457 1.857834 10.548504
			CHANNELS 3 Zrotation Yrotation Xrotation
			JOINT LeftLeg
			{
				OFFSET 43.499996 -0.000046 0.000000
				CHANNELS 3 Zrotation Yrotation Xrotation
				JOINT LeftFoot
				{
					OFFSET 42.372192 0.000027 0.000002
					CHANNELS 3 Zrotation Yrotation Xrotation
					JOINT LeftToe
					{
						OFFSET 17.299994 -0.000003 -0.000001
						CHANNELS 3 Zrotation Yrotation Xrotation
						End Site
						{
							OFFSET 0.000000 0.000000 0.000000
						}
					}
				}
			}
		}
		JOINT RightUpLeg
		{
			OFFSET 0.103456 1.857832 -10.548504
			CHANNELS 3 Zrotation Yrotation Xrotation
			JOINT RightLeg
			{
				OFFSET 43.500046 -0.000011 0.000010
				CHANNELS 3 Zrotation Yrotation Xrotation
				JOINT RightFoot
				{
					OFFSET 42.372261 -0.000034 0.000021
					CHANNELS 3 Zrotation Yrotation Xrotation
					JOINT RightToe
					{
						OFFSET 17.300011 0.000001 0.000002
						CHANNELS 3 Zrotation Yrotation Xrotation
						End Site
						{
							OFFSET 0.000000 0.000000 0.000000
						}
					}
				}
			}
		}
		JOINT Spine
		{
			OFFSET 6.901965 -2.603721 0.000001
			CHANNELS 3 Zrotation Yrotation Xrotation
			JOINT Spine1
			{
				OFFSET 12.588100 0.000000 -0.000000
				CHANNELS 3 Zrotation Yrotation Xrotation
				JOINT Spine2
				{
					OFFSET 12.343206 0.000005 0.000000
					CHANNELS 3 Zrotation Yrotation Xrotation
					JOINT Neck
					{
						OFFSET 25.832893 -0.000008 0.000000
						CHANNELS 3 Zrotation Yrotation Xrotation
						JOINT Head
						{
							OFFSET 11.766617 0.000009 0.000001
							CHANNELS 3 Zrotation Yrotation Xrotation
							End Site
							{
								OFFSET 0.000000 0.000000 0.000000
							}
						}
					}
					JOINT LeftShoulder
					{
						OFFSET 19.745899 -1.480394 6.000106
						CHANNELS 3 Zrotation Yrotation Xrotation
						JOINT LeftArm
						{
							OFFSET 11.284122 -0.000030 -0.000014
							CHANNELS 3 Zrotation Yrotation Xrotation
							JOINT LeftForeArm
							{
								OFFSET 33.000050 0.000020 0.000016
								CHANNELS 3 Zrotation Yrotation Xrotation
								JOINT LeftHand
								{
									OFFSET 25.200014 -0.000003 0.000011
									CHANNELS 3 Zrotation Yrotation Xrotation
									End Site
									{
										OFFSET 0.000000 0.000000 0.000000
									}
								}
							}
						}
					}
					JOINT RightShoulder
					{
						OFFSET 19.746094 -1.480381 -6.000073
						CHANNELS 3 Zrotation Yrotation Xrotation
						JOINT RightArm
						{
							OFFSET 11.284140 -0.000016 -0.000006
							CHANNELS 3 Zrotation Yrotation Xrotation
							JOINT RightForeArm
							{
								OFFSET 33.000088 0.000015 0.000002
								CHANNELS 3 Zrotation Yrotation Xrotation
								JOINT RightHand
								{
									OFFSET 25.199776 0.000133 0.000416
									CHANNELS 3 Zrotation Yrotation Xrotation
									End Site
									{
										OFFSET 0.000000 0.000000 0.000000
									}
								}
							}
						}
					}
				}
			}
		}
	}
}
MOTION
Frames: 14
Frame Time: 0.016667
-273.611064 0.000000 -25.814826 0.000000 229.921366 0.000000 -3.113870 89.922623 2.597950 91.333576 6.452229 -179.058864 -176.862967 -2.083106 170.869791 -32.836431 -0.190417 -3.752122 90.086294 2.604210 0.165944 21.454557 0.003104 -0.000004 156.747582 -4.614303 -176.437078 -65.072468 0.277656 10.534107 78.918744 -6.785118 2.760876 21.454553 -0.003107 -0.000015 9.447150 0.850613 -0.902073 8.869108 1.767734 -1.736500 8.550984 1.757347 -1.747144 -9.551723 2.453056 3.111801 -8.289183 -2.105548 4.518335 -179.504775 -75.482985 -1.898324 -4.770190 60.347882 9.737043 -105.632201 1.038054 2.926465 6.773510 -14.236454 11.768730 141.983266 73.512810 -37.571752 23.764003 -55.922841 -31.908314 -99.754714 1.221410 -2.868961 5.304999 7.060781 -33.807902 
-275.916379 0.000000 -23.368868 0.000000 230.211320 0.000000 -2.962798 91.073433 2.506804 91.003142 6.247584 -179.169087 -174.418094 -2.626234 170.520078 -30.407997 -0.896709 -2.912851 83.904035 2.043039 -0.105929 21.454552 0.003096 -0.000000 156.301368 -4.493158 -177.263669 -59.247852 0.895719 9.981853 78.790767 -6.272408 3.356411 21.454553 -0.003110 -0.000017 9.339872 0.880999 -1.050006 8.651718 1.837889 -2.031472 8.333641 1.825721 -2.042530 -9.829202 2.475330 3.293410 -8.335836 -1.934965 4.660843 -179.291366 -75.449285 -2.116171 -5.298966 60.723607 9.940500 -107.764609 1.572149 2.985182 6.430583 -15.398680 8.757468 141.577075 74.025753 -37.945583 26.515223 -55.581307 -34.024388 -100.746847 1.066898 -2.902294 5.779245 6.716230 -33.342945 
-278.231913 0.000000 -20.898355 0.000000 230.508080 0.000000 -2.845364 92.128906 2.359086 90.482763 5.856566 -179.314652 -172.600711 -3.086502 169.497537 -28.711392 -1.324558 -1.683104 77.709097 1.066280 -0.691395 21.454550 0.003087 0.000003 155.958122 -4.182607 -177.752996 -52.957898 1.145876 9.522723 78.289635 -5.775399 4.132749 21.454555 -0.003113 -0.000020 9.186646 0.860847 -1.164769 8.343652 1.803259 -2.264730 8.025636 1.789684 -2.275570 -10.295639 2.514192 3.443009 -8.171030 -1.675251 4.750254 -179.157706 -75.486086 -2.253730 -5.757334 60.558231 10.757357 -109.637902 1.987696 3.035194 6.497441 -15.879631 5.740720 140.944912 74.525201 -38.549643 29.284234 -55.203865 -36.151186 -101.718304 0.914780 -2.935209 6.167689 6.300016 -33.532058 
-280.551943 0.000000 -18.416466 0.000000 230.814478 0.000000 -2.702617 93.055553 2.186390 89.956993 5.382267 -179.494432 -170.991887 -3.380328 167.828404 -27.529333 -1.204530 -0.311952 72.621356 -0.369780 -2.086900 21.454554 0.003086 0.000001 155.869308 -3.817660 -178.132879 -46.365140 1.316840 9.125988 77.379812 -5.384614 4.551117 21.454558 -0.003115 -0.000020 9.019808 0.803272 -1.236077 8.009831 1.689972 -2.413875 7.691868 1.675497 -2.424033 -10.869315 2.931098 3.443628 -7.539428 -1.777745 4.926181 -179.503819 -75.714556 -1.903899 -6.048887 60.041756 12.183109 -111.002077 2.185283 3.078453 6.189142 -16.000105 3.570059 140.446580 74.749226 -39.038567 31.881227 -54.538200 -38.048226 -102.603822 0.728778 -2.962067 6.575855 5.797172 -33.775604 
-282.869333 0.000000 -15.933572 0.000000 231.122237 0.000000 -2.508021 93.727966 1.998813 89.575022 4.763993 -179.668726 -169.728206 -3.282105 166.380936 -27.374499 -0.543253 0.837087 68.990005 -1.754391 -3.442881 21.454558 0.003088 -0.000001 156.193613 -3.296706 -178.702952 -39.728747 1.550481 8.693644 76.554023 -4.886334 5.263702 21.454560 -0.003113 -0.000018 8.870581 0.712933 -1.280747 7.712436 1.509413 -2.511389 7.394530 1.494352 -2.520457 -11.316674 3.263356 3.422827 -6.842790 -1.909921 5.055784 179.817912 -76.007126 -1.215891 -6.119828 59.409366 13.911691 -112.061103 2.286946 3.118756 5.646090 -15.746304 2.425976 139.753522 74.993567 -39.723322 34.116872 -53.816739 -39.847712 -103.254100 0.574088 -2.979806 6.617466 5.609518 -33.886623 
-285.175123 0.000000 -13.458335 0.000000 231.420598 0.000000 -2.262643 94.037805 1.798087 89.450386 3.963831 -179.804731 -168.993771 -2.666603 166.067349 -28.725852 0.524380 1.341905 66.837493 -2.417840 -3.984966 21.454554 0.003088 0.000003 156.997437 -2.520741 -179.664100 -33.410806 1.964549 8.204639 76.328839 -4.149433 6.793010 21.454559 -0.003108 -0.000016 8.768768 0.597126 -1.313741 7.510728 1.278008 -2.586171 7.192893 1.262503 -2.593829 -11.457873 3.043146 3.520798 -6.513123 -1.691386 5.004319 179.069831 -76.212292 -0.455276 -5.972942 58.837674 15.617511 -113.033335 2.427569 3.151476 5.194969 -15.075515 2.201736 138.516518 75.545325 -40.934983 35.843218 -53.273168 -41.686587 -103.569217 0.510586 -2.989162 6.031092 6.036731 -33.819643 
-287.459993 0.000000 -10.999565 0.000000 231.706736 0.000000 -2.045519 94.036911 1.565874 89.586276 3.190690 -179.938492 -168.565080 -1.765189 167.108610 -31.161928 1.525186 0.780893 65.847968 -2.201788 -4.300434 21.454551 0.003088 0.000006 158.002520 -1.666305 179.227784 -28.104754 2.632620 7.972946 76.696897 -3.721757 7.954245 21.454558 -0.003105 -0.000016 8.739492 0.482493 -1.315253 7.454562 1.048453 -2.596853 7.136772 1.032892 -2.603116 -11.487919 2.595322 3.639559 -6.454659 -1.356264 4.861893 178.314506 -76.327987 0.314278 -5.888704 58.239587 17.122257 -113.741609 2.570758 3.170739 4.947591 -14.290912 2.341392 137.396902 76.124509 -42.023675 36.834960 -52.698305 -43.088743 -103.730710 0.475155 -2.994066 5.548201 6.552128 -33.685607 
-289.715769 0.000000 -8.562065 0.000000 231.983844 0.000000 -1.926429 93.790476 1.302815 89.951288 2.678522 179.896404 -168.185348 -0.908768 169.317924 -34.191508 1.999714 -0.955140 65.714151 -1.238391 -5.032743 21.454553 0.003090 0.000003 158.916596 -1.004821 178.340024 -24.461831 3.457866 8.245632 77.353805 -4.051733 7.648742 21.454557 -0.003108 -0.000017 8.796192 0.399529 -1.266419 7.570133 0.880818 -2.504090 7.252327 0.865819 -2.509351 -11.571693 2.389684 3.646341 -6.515578 -1.278475 4.772928 177.556235 -76.397580 1.087636 -6.091377 57.525495 18.348986 -113.989259 2.648324 3.175602 4.918249 -13.655775 2.350481 137.246576 76.405594 -42.153391 36.916345 -51.878346 -43.574502 -103.900254 0.409146 -2.996819 5.765219 6.621572 -33.584036 
-291.933577 0.000000 -6.146297 0.000000 232.258920 0.000000 -1.849070 93.256912 1.109062 90.492621 2.516433 179.754892 -167.943464 -0.520699 171.566470 -37.920912 2.136992 -2.921521 66.441313 -0.081515 -5.857000 21.454557 0.003094 -0.000003 159.683198 -0.853392 178.137781 -22.622275 3.940642 8.694706 77.491377 -4.585844 6.867345 21.454557 -0.003111 -0.000017 8.910683 0.374851 -1.186415 7.800243 0.828622 -2.344931 7.482391 0.814584 -2.349889 -11.388126 2.683176 3.509703 -6.853472 -1.769812 4.886669 176.798299 -76.497800 1.859621 -6.297147 56.827339 19.473109 -113.897010 2.636903 3.172769 4.997707 -12.890440 2.396308 137.806426 76.389589 -41.587557 36.263584 -50.964582 -43.344649 -103.878802 0.395145 -2.995075 5.749741 6.526131 -33.492528 
-294.103601 0.000000 -3.750203 0.000000 232.538976 0.000000 -1.753888 92.404931 1.067810 91.134912 2.694086 179.709363 -168.046812 -0.852123 172.782708 -42.485921 2.339393 -4.236584 67.990312 0.795249 -6.273809 21.454557 0.003099 -0.000006 160.303421 -1.380416 178.954826 -22.554727 3.708544 8.904602 76.592097 -4.777057 6.555526 21.454557 -0.003110 -0.000017 9.045244 0.421318 -1.100779 8.069202 0.918192 -2.169575 7.751309 0.905212 -2.175072 -10.669630 3.453146 3.272722 -7.556043 -2.861967 5.247034 176.063014 -76.640271 2.607004 -6.206632 56.258982 20.665468 -113.592799 2.531011 3.166762 5.062349 -11.721105 2.634740 138.474813 76.163391 -40.928245 35.142657 -50.125390 -42.719361 -103.461188 0.508193 -2.985341 4.678842 6.618115 -33.353833 
-296.220130 0.000000 -1.371271 0.000000 232.828910 0.000000 -1.687435 91.351227 1.080178 91.736990 2.953172 179.797937 -168.645922 -1.456689 173.081611 -47.499511 2.870326 -5.193901 69.727857 1.635057 -6.051269 21.454555 0.003099 -0.000004 160.798021 -2.091294 -179.486402 -23.959530 3.119316 8.758959 75.890163 -4.972881 5.294979 21.454557 -0.003109 -0.000016 9.164994 0.500451 -1.023453 8.308082 1.072928 -2.008431 7.990148 1.060920 -2.014857 -9.832918 3.759788 3.140961 -8.087961 -3.545328 5.420933 175.523841 -76.543493 3.160431 -5.928941 55.666617 21.875751 -112.916003 2.351507 3.150784 5.010593 -10.441009 2.530028 138.792118 75.848412 -40.631471 33.874339 -49.277768 -41.862963 -102.778500 0.651933 -2.964082 3.690449 6.705073 -33.089144 
-298.282749 0.000000 0.993926 0.000000 233.129786 0.000000 -1.704077 90.222559 1.057241 92.162894 3.116908 -179.970350 -169.850910 -1.967200 172.851349 -52.581447 3.796891 -6.277560 71.075042 2.718627 -5.192175 21.454552 0.003092 0.000001 161.153688 -2.558116 -177.607490 -26.539497 2.566458 8.328642 76.777477 -5.528060 2.004317 21.454556 -0.003111 -0.000016 9.239611 0.584636 -0.957028 8.456745 1.237495 -1.868886 8.138756 1.226327 -1.876313 -9.279251 2.861388 3.248265 -8.029596 -3.008490 5.038434 175.385516 -76.041795 3.315926 -5.631292 54.977527 23.022352 -111.704870 2.126950 3.115813 4.832171 -9.377847 1.706337 138.515133 75.561799 -40.935014 32.700467 -48.353729 -40.893347 -101.976236 0.736793 -2.932054 3.868060 6.535403 -32.709366 
-300.292132 0.000000 3.353239 0.000000 233.435245 0.000000 -1.784640 89.037956 1.149949 92.354304 3.587071 -179.648772 -171.741664 -2.983706 172.403332 -57.871775 4.767393 -7.468475 72.257923 3.814200 -4.377782 21.454551 0.003084 0.000005 161.102197 -3.305698 -175.831103 -30.313034 1.959845 8.113980 79.384037 -5.989438 -0.661432 21.454557 -0.003112 -0.000017 9.254855 0.740733 -0.869290 8.486300 1.543077 -1.682088 8.168221 1.533032 -1.691374 -8.679076 1.756434 3.407700 -8.114406 -2.231768 4.580899 175.681099 -75.720688 3.022691 -5.270758 54.694042 24.143164 -110.081891 1.889286 3.061188 4.964409 -8.422731 1.119736 137.929370 75.365219 -41.544705 31.486539 -47.574654 -39.897528 -100.920791 0.871920 -2.896659 4.120640 6.199746 -32.645370 
-302.249986 0.000000 5.719518 0.000000 233.737272 0.000000 -1.901357 87.811195 1.497277 92.317201 4.701904 -179.317734 -174.324482 -5.004761 172.047653 -63.486348 5.441500 -8.604833 73.606124 4.693800 -4.142284 21.454551 0.003081 0.000005 160.483002 -4.796860 -174.505529 -35.151544 1.266099 8.530217 83.293849 -6.077703 -0.170617 21.454557 -0.003106 -0.000018 9.218865 1.022703 -0.731401 8.413612 2.095742 -1.386785 8.095383 2.087471 -1.399419 -7.753598 1.502726 3.438784 -8.970988 -2.294140 4.559936 176.405656 -76.001172 2.274069 -4.751264 55.157308 25.262630 -108.214706 1.633253 2.994933 5.757954 -7.475843 2.096907 137.558441 75.195262 -41.934518 29.910988 -47.072431 -38.744645 -99.484120 1.160047 -2.857798 3.351264 5.898440 -33.189683 
